<?xml version="1.0" encoding="utf-8"?>
<!-- Generator: Adobe Illustrator 17.0.0, SVG Export Plug-In . SVG Version: 6.00 Build 0)  -->
<!DOCTYPE svg PUBLIC "-//W3C//DTD SVG 1.1//EN" "http://www.w3.org/Graphics/SVG/1.1/DTD/svg11.dtd">
<svg version="1.1" id="layer" xmlns="http://www.w3.org/2000/svg" xmlns:xlink="http://www.w3.org/1999/xlink" x="0px" y="0px"
	 width="992.13px" height="340.16px" viewBox="0 0 992.13 340.16" enable-background="new 0 0 992.13 340.16" xml:space="preserve">
<path fill="#009FE3" d="M255.442,123.254l-13.677-12.642c-21.084,14.284-47.638,22.884-76.577,22.882
	c-28.93,0.002-55.483-8.598-76.57-22.88L74.94,123.254c24.708,17.917,56.13,28.548,90.248,28.557
	C199.314,151.803,230.735,141.171,255.442,123.254L255.442,123.254z M165.191,117.903c23.844-0.007,45.892-7.142,63.604-19.277
	l-13.794-12.749c-14.032,8.588-31.197,13.714-49.81,13.712c-18.616,0.002-35.777-5.124-49.809-13.71l-13.795,12.749
	C119.299,110.761,141.347,117.896,165.191,117.903L165.191,117.903z M165.191,82.99c13.271-0.004,25.679-3.575,36.071-9.809
	l-35.597-33.55l-36.545,33.553C139.511,79.417,151.918,82.985,165.191,82.99L165.191,82.99z"/>
<g>
	<path fill="#009FE3" d="M764.464,176.574l-6.287-28.424h-16.193l-2.663,37.391h12.19c0.199-4.184,0.382-8.413,0.49-12.342h0.233
		c0.603,3.996,1.388,8.272,2.206,12.342h11.936C765.756,182.631,765.121,179.672,764.464,176.574z"/>
	<path fill="#009FE3" d="M388.795,168.885c0-4.192,3.146-8.154,9.669-8.154c4.31,0,7.688,1.282,9.902,2.68l2.447-13.166
		c-2.214-1.397-7.108-2.794-12.349-2.794c-16.31,0-24.696,10.482-24.696,23.068c0,4.776,1.855,10.078,6.319,15.022h25.429
		c-1.696-1.545-3.674-3.027-6.004-4.425C391.125,175.993,388.795,173.546,388.795,168.885z"/>
	<path fill="#009FE3" d="M509.477,147.218c-17.024,0-25.51,17.593-25.936,38.323h15.825c0.245-15.746,3.585-25.042,9.412-25.042
		c6.792,0,8.957,11.766,9.076,25.042h15.842C533.605,167.707,528.185,147.218,509.477,147.218z"/>
	<path fill="#009FE3" d="M797.548,148.15H781.47l-6.291,28.424c-0.617,3.09-1.199,6.053-1.761,8.968h10.493
		c0.846-4.054,1.672-8.341,2.339-12.342h0.233c-0.055,3.887,0.019,8.146,0.157,12.342h13.183L797.548,148.15z"/>
	<polygon fill="#009FE3" points="920.671,179.486 920.671,161.434 939.544,161.434 939.544,148.15 905.414,148.15 905.414,185.541 
		938.495,185.541 938.495,179.486 	"/>
	<path fill="#009FE3" d="M859.406,185.541h12.241c-0.925-2.451-1.816-4.752-2.577-6.639l-12.116-30.752h-13.979v37.391h12.951
		c-0.186-4.83-0.403-8.986-0.602-12.342h0.233C856.516,176.801,857.912,181.206,859.406,185.541z"/>
	<polygon fill="#009FE3" points="948.278,162.247 962.143,162.247 962.143,185.541 977.404,185.541 977.404,162.247 
		991.383,162.247 991.383,148.15 948.278,148.15 	"/>
	<path fill="#009FE3" d="M703.078,168.885c0-4.192,3.145-8.154,9.665-8.154c4.314,0,7.688,1.282,9.902,2.68l2.447-13.166
		c-2.214-1.397-7.108-2.794-12.349-2.794c-16.307,0-24.698,10.482-24.698,23.068c0,4.776,1.857,10.078,6.321,15.022h25.43
		c-1.695-1.545-3.673-3.027-6.002-4.425C705.406,175.993,703.078,173.546,703.078,168.885z"/>
	<rect x="656.249" y="182.631" fill="#009FE3" width="21.083" height="2.91"/>
	<path fill="#009FE3" d="M889.576,148.15h-13.399v17.361c0,7.052,0.251,13.897,0.561,20.03h12.838V148.15z"/>
	<path fill="#009FE3" d="M673.488,162.946l2.566-13.162c-2.447-1.164-6.757-2.332-12.7-2.332c-16.414,0-32.124,11.269-33.32,38.09
		h15.812c0.823-17.96,8.751-24.344,18.675-24.344C668.247,161.197,671.159,161.778,673.488,162.946z"/>
	<path fill="#009FE3" d="M561.662,147.802c-5.823,0-11.65,0.585-15.958,1.516v36.223h40.626c2.14-3.789,3.409-8.508,3.409-14.442
		c0-6.642-2.099-13.166-6.759-17.239C577.971,149.081,570.747,147.802,561.662,147.802z M563.529,185.193
		c-0.933,0-1.751,0-2.566-0.114v-24.347c0.934-0.351,2.331-0.58,3.728-0.58c7.106,0,9.9,5.359,9.9,12.23
		C574.591,179.719,571.217,185.193,563.529,185.193z"/>
	<rect x="598.004" y="180.299" fill="#009FE3" width="23.183" height="5.242"/>
	<polygon fill="#009FE3" points="425.023,148.15 425.023,185.541 471.505,185.541 471.505,148.15 456.243,148.15 456.243,179.605 
		440.283,179.605 440.283,148.15 	"/>
</g>
<g>
	<path fill="#009FE3" d="M630.049,185.196c-0.044,0.891-0.117,1.751-0.128,2.677c-0.233,13.513,3.376,25.164,10.137,31.688
		c5.122,5.241,11.996,7.807,21.083,7.807c5.709,0,12.817-1.397,16.191-2.794v-39.377h-21.083v9.899h7.104v18.987
		c-0.582,0.237-1.632,0.351-3.029,0.351c-7.22,0-14.561-6.871-14.561-25.744c0-1.214,0.034-2.373,0.091-3.494H630.049z"/>
	<path fill="#009FE3" d="M757.127,197.775l6.519,27.611h10.723l6.871-28.077c0.813-3.247,1.791-7.542,2.741-12.113h-10.498
		c-1.266,6.555-2.379,12.753-3.194,18.87h-0.351c-0.977-6.193-2.247-12.351-3.636-18.87h-11.931
		C755.312,189.907,756.304,194.362,757.127,197.775z"/>
	<path fill="#009FE3" d="M871.516,185.196h-12.231c1.438,4.192,2.975,8.339,4.31,11.648l11.998,29.821h13.983v-41.468h-12.854
		c0.328,6.572,0.726,12.35,0.966,16.656h-0.233C875.898,197.099,873.598,190.697,871.516,185.196z"/>
	<path fill="#009FE3" d="M483.55,185.196c-0.016,0.66-0.05,1.313-0.05,1.979c0,21.548,6.99,40.425,24.81,40.425
		c14.912,0,25.395-12.002,25.395-41.59c0-0.269-0.013-0.544-0.016-0.814h-15.839c0.006,0.505,0.015,1.008,0.015,1.517
		c0,15.956-2.449,27.607-8.969,27.607c-6.174,0-9.554-9.085-9.554-26.912c0-0.756,0.015-1.482,0.028-2.211H483.55z"/>
	<path fill="#009FE3" d="M413.724,203.6c0-6.568-2.367-12.916-8.59-18.404h-25.349c2.218,2.534,5.098,4.981,8.778,7.22
		c6.64,4.314,10.135,7.108,10.135,12.819c0,5.123-3.611,8.849-10.717,8.849c-4.31,0-9.786-1.279-12.931-3.027l-2.212,13.166
		c2.678,1.511,8.736,3.146,15.027,3.146C403.123,227.367,413.724,217.93,413.724,203.6z"/>
	<path fill="#009FE3" d="M545.704,226.664h15.259v-29.237c1.05,0.118,1.983,0.118,3.029,0.118c6.408,0,14.214-2.333,19.104-7.573
		c1.319-1.395,2.458-2.994,3.425-4.777h-40.817V226.664z"/>
	<polygon fill="#009FE3" points="905.414,226.664 940.827,226.664 940.827,213.388 920.671,213.388 920.671,192.186 
		938.495,192.186 938.495,185.196 905.414,185.196 	"/>
	<rect x="598.004" y="185.196" fill="#009FE3" width="23.183" height="6.059"/>
	<polygon fill="#009FE3" points="471.505,226.664 471.505,185.196 425.023,185.196 425.023,226.664 440.283,226.664 
		440.283,193.816 456.243,193.816 456.243,226.664 	"/>
	<path fill="#009FE3" d="M702.841,192.415c6.638,4.314,10.135,7.108,10.135,12.819c0,5.123-3.607,8.849-10.715,8.849
		c-4.313,0-9.783-1.279-12.929-3.027l-2.214,13.166c2.676,1.511,8.734,3.146,15.025,3.146c15.262,0,25.862-9.437,25.862-23.767
		c0-6.568-2.368-12.916-8.591-18.404h-25.35C696.281,187.729,699.162,190.177,702.841,192.415z"/>
	<rect x="962.143" y="185.196" fill="#009FE3" width="15.262" height="41.468"/>
	<path fill="#009FE3" d="M787.299,199.176l1.397,27.488h13.628l-2.522-41.468h-13.173
		C786.788,190.173,787.041,195.079,787.299,199.176z"/>
	<path fill="#009FE3" d="M813.504,217.465c0,6.173,4.081,10.135,8.738,10.135c5.478,0,9.085-3.962,9.085-10.135
		c0-6.291-3.958-10.139-8.852-10.139C817.7,207.325,813.504,211.64,813.504,217.465z"/>
	<path fill="#009FE3" d="M842.974,226.664h13.399v-17.59c0-9.284-0.201-17.249-0.461-23.878h-12.938V226.664z"/>
	<path fill="#009FE3" d="M750.836,199.405c0.193-4.292,0.455-9.225,0.691-14.209h-12.182l-2.954,41.468h13.048L750.836,199.405z"/>
</g>
<path d="M369.72,271.747l8.468,25.523c0.28,0.899,0.225,1.511,0.055,2.186c-0.784,2.692-2.86,7.071-5.944,7.071
	c-0.448,0-0.842-0.057-1.177-0.115l-0.169,3.472c0.562,0.221,1.234,0.278,2.02,0.278c2.86,0,5.382-2.181,7.12-5.433
	c2.58-5.049,4.15-11.892,5.272-16.046l4.542-16.937h-4.375l-3.364,15.368c-0.504,2.357-0.954,4.824-1.401,6.675h-0.17
	c-0.504-2.075-1.064-4.208-1.738-6.561l-4.485-15.482H369.72L369.72,271.747z M410.158,305.293c-0.899,0.392-2.3,0.78-3.928,0.78
	c-4.655,0-8.917-3.811-8.917-15.372c0-11.561,4.767-15.487,8.805-15.487c1.965,0,2.862,0.397,3.758,0.789l0.954-3.64
	c-0.729-0.507-2.412-0.956-4.655-0.956c-6.003,0-13.399,4.759-13.399,19.686c0,12.852,5.321,18.791,12.67,18.791
	c2.355,0,4.263-0.392,5.441-1.009L410.158,305.293L410.158,305.293z M416.39,271.747v37.799h4.087l7.074-18.224
	c1.46-3.823,3.198-7.97,4.547-12.684h0.11c-0.335,5.049-0.447,9.763-0.447,17.839v13.068h3.864v-37.799h-4.032l-6.793,17.664
	c-1.571,4.093-3.591,9.085-4.882,13.178h-0.113c0.337-5.944,0.504-10.768,0.504-17.329v-13.513H416.39L416.39,271.747z
	 M444.717,271.747v17.272c0,9.306-0.619,14.355-2.919,16.381c-0.56,0.502-1.234,0.837-2.018,0.952l0.897,3.64
	c1.346,0,2.469-0.445,3.421-1.173c4.259-2.974,4.594-10.605,4.594-20.417v-12.905h7.974v34.049h4.31v-37.799H444.717
	L444.717,271.747z M482.686,287.956h-9.479v-12.459h10.094v-3.75h-14.406v37.799h15.08v-3.754h-10.768v-14.196h9.479V287.956
	L482.686,287.956z M489.871,271.747v37.799h4.314v-17.668h10.609v17.668h4.311v-37.799h-4.311v16.209h-10.609v-16.209H489.871
	L489.871,271.747z M516.966,271.747v37.799h4.087l7.069-18.224c1.461-3.823,3.201-7.97,4.547-12.684h0.114
	c-0.335,5.049-0.447,9.763-0.447,17.839v13.068h3.86v-37.799h-4.028l-6.793,17.664c-1.573,4.093-3.595,9.085-4.882,13.178h-0.114
	c0.335-5.944,0.507-10.768,0.507-17.329v-13.513H516.966L516.966,271.747z M557.906,287.956h-9.479v-12.459h10.094v-3.75h-14.406
	v37.799h15.08v-3.754h-10.768v-14.196h9.479V287.956L557.906,287.956z M592.459,289.811h-8.915v3.579h4.882v12.349
	c-0.335,0.225-1.179,0.449-2.635,0.449c-4.547,0-8.981-3.762-8.981-15.429c0-11.724,5.106-15.482,9.823-15.482
	c2.02,0,3.309,0.392,4.316,0.891l0.95-3.693c-1.121-0.617-2.965-1.066-5.325-1.066c-6.677,0-14.189,4.988-14.245,19.743
	c-0.057,6.953,1.791,12.174,4.537,15.094c2.527,2.741,5.613,3.64,8.926,3.64c2.355,0,5.1-0.621,6.669-1.291V289.811L592.459,289.811
	z M597.682,308.259c1.064,0.784,3.752,1.626,6.334,1.626c6.062,0,10.601-4.093,10.601-10.601c0-4.207-2.016-7.684-6.561-10.882
	c-3.593-2.582-5.558-4.04-5.558-7.798c0-2.582,1.74-5.388,5.505-5.388c1.961,0,3.53,0.617,4.483,1.295l1.009-3.701
	c-0.894-0.67-2.913-1.401-5.272-1.401c-6.007,0-9.98,4.204-9.98,9.922c0,4.882,4.087,8.416,7.12,10.499
	c2.974,2.239,4.994,4.371,4.994,7.852c0,3.815-2.355,6.393-6.342,6.393c-1.853,0-4.15-0.674-5.384-1.516L597.682,308.259
	L597.682,308.259z M644.513,309.546h4.036l-2.184-37.799h-4.822l-4.263,17.272c-1.234,5.098-2.075,8.693-2.806,13.011h-0.168
	c-0.786-4.318-1.736-8.019-3.029-13.011l-4.371-17.272h-4.714l-2.243,37.799h3.869l0.729-15.985
	c0.225-5.384,0.505-10.662,0.451-15.09h0.168c0.786,4.375,1.849,9.028,3.141,13.856l4.371,16.998h2.806l4.598-17.729
	c1.178-4.432,2.187-8.917,3.029-13.125h0.225c-0.172,4.26,0.11,9.816,0.394,14.808L644.513,309.546L644.513,309.546z
	 M667.568,300.46c3.141,0,5.439-2.3,5.439-5.384c0-3.195-2.41-5.437-5.38-5.437c-2.974,0-5.384,2.3-5.329,5.437
	C662.299,298.218,664.654,300.46,667.568,300.46L667.568,300.46z M687.6,271.747v37.799h4.085l7.075-18.224
	c1.459-3.823,3.199-7.97,4.547-12.684h0.115c-0.339,5.049-0.453,9.763-0.453,17.839v13.068h3.864v-37.799H702.8l-6.789,17.664
	c-1.573,4.093-3.595,9.085-4.886,13.178h-0.11c0.335-5.944,0.502-10.768,0.502-17.329v-13.513H687.6L687.6,271.747z
	 M714.749,271.747v37.799h4.31v-17.668h10.609v17.668h4.314v-37.799h-4.314v16.209h-10.609v-16.209H714.749L714.749,271.747z
	 M745.881,309.546h4.314v-33.934h6.9v-3.865h-18.113v3.865h6.9V309.546L745.881,309.546z M776.22,287.956h-9.481v-12.459h10.098
	v-3.75h-14.412v37.799h15.086v-3.754h-10.772v-14.196h9.481V287.956L776.22,287.956z M783.463,309.546h4.253v-15.478
	c0.621,0.049,1.18,0.049,1.912,0.049c3.37,0,6.904-1.397,8.917-4.199c1.459-1.904,2.3-4.261,2.3-7.741
	c0-3.313-0.952-6.062-2.745-7.855c-1.961-1.904-4.939-2.745-8.415-2.745c-2.472,0-4.485,0.282-6.221,0.727V309.546L783.463,309.546z
	 M787.716,275.386c0.563-0.172,1.405-0.282,2.414-0.282c4.833,0,6.401,3.48,6.401,7.353c0,5.384-2.864,8.137-7.075,8.137
	c-0.727,0-1.234-0.057-1.74-0.115V275.386L787.716,275.386z M806.907,271.747v37.799h4.314v-17.668h10.609v17.668h4.314v-37.799
	h-4.314v16.209h-10.609v-16.209H806.907L806.907,271.747z M847.794,287.956h-9.478v-12.459h10.09v-3.75h-14.404v37.799h15.078
	v-3.754h-10.764v-14.196h9.478V287.956L847.794,287.956z M859.412,309.546h4.31v-33.934h6.9v-3.865h-18.109v3.865h6.9V309.546
	L859.412,309.546z M882.411,308.316c1.459,1.009,4.04,1.675,6.389,1.675c6.622,0,10.429-4.812,10.429-10.76
	c0-5.727-3.134-8.644-6.393-9.538v-0.11c3.538-1.626,5.441-4.877,5.441-8.53c0-4.714-2.913-8.407-8.076-8.407
	c-2.745,0-5.213,1.005-6.557,2.067l0.952,3.256c1.18-0.845,2.749-1.74,4.542-1.74c2.859,0,4.825,1.908,4.825,5.609
	c0,4.547-3.987,6.512-6.565,6.512h-0.841v3.247h1.009c4.371,0,7.349,2.75,7.349,7.578c0,4.485-2.529,7.238-6.336,7.238
	c-2.19,0-4.097-0.841-5.217-1.511L882.411,308.316L882.411,308.316z M924.92,289.811h-8.914v3.579h4.882v12.349
	c-0.335,0.225-1.177,0.449-2.639,0.449c-4.542,0-8.975-3.762-8.975-15.429c0-11.724,5.106-15.482,9.821-15.482
	c2.022,0,3.309,0.392,4.314,0.891l0.952-3.693c-1.119-0.617-2.966-1.066-5.323-1.066c-6.679,0-14.191,4.988-14.248,19.743
	c-0.053,6.953,1.793,12.174,4.538,15.094c2.524,2.741,5.613,3.64,8.922,3.64c2.361,0,5.102-0.621,6.671-1.291V289.811
	L924.92,289.811z M931.713,311.796l12.055-40.499h-3.252l-12.055,40.499H931.713L931.713,311.796z M960.819,309.546v-10.098h3.93
	v-3.526h-3.93v-22.831h-4.199l-11.839,23.444v2.913h12.12v10.098H960.819L960.819,309.546z M948.874,295.922v-0.114l5.053-10.487
	c1.066-2.251,1.851-3.934,3.088-6.85h0.22c-0.167,2.41-0.335,4.657-0.335,7.181v10.27H948.874L948.874,295.922z M987.858,289.811
	h-8.918v3.579h4.886v12.349c-0.339,0.225-1.177,0.449-2.639,0.449c-4.547,0-8.979-3.762-8.979-15.429
	c0-11.724,5.106-15.482,9.821-15.482c2.022,0,3.309,0.392,4.318,0.891l0.952-3.693c-1.119-0.617-2.97-1.066-5.323-1.066
	c-6.683,0-14.195,4.988-14.248,19.743c-0.053,6.953,1.789,12.174,4.534,15.094c2.529,2.741,5.613,3.64,8.926,3.64
	c2.361,0,5.106-0.621,6.671-1.291V289.811L987.858,289.811z"/>
<path d="M331.653,157.681c0.015-5.055-2.207-9.929-5.985-13.401L180.657,10.261c-3.94-3.609-9.041-5.466-14.33-5.483
	c-5.288,0.017-10.383,1.874-14.326,5.483l-30.408,28.1H83.582c-14.063,0.007-25.454,11.4-25.456,25.463v33.203L6.995,144.278
	c-3.786,3.474-6.006,8.357-5.994,13.406c-0.003,2.621,0.593,5.278,1.773,7.723c3.488,7.142,10.81,11.157,18.547,11.173h18.513
	l0.003,111.813c-0.008,6.856,3.179,13.007,7.92,17.187c4.747,4.208,11.115,6.674,17.997,6.681h49.89
	c2.344,9.093,9.205,22.424,29.454,22.424h43.401v-63.989h-43.401c0,0-27.604,0.052-30.411,26.299H65.754
	c-3.211,0.004-5.993-1.167-7.861-2.829c-1.877-1.697-2.783-3.659-2.792-5.773V161.315H21.32c-2.443,0.014-4.289-1.35-4.785-2.518
	c-0.2-0.416-0.266-0.76-0.269-1.113c0.013-0.659,0.237-1.39,1.09-2.194l56.032-51.785V63.823c0.011-5.628,4.57-10.187,10.194-10.196
	h43.99l34.787-32.151c0.824-0.792,2.388-1.45,3.969-1.434c1.586-0.016,3.149,0.644,3.968,1.43L315.3,155.488
	c0.849,0.804,1.077,1.541,1.087,2.194c0,0.349-0.072,0.704-0.268,1.115c-0.491,1.166-2.341,2.532-4.783,2.518h-33.782v127.078
	c-0.009,2.114-0.912,4.076-2.788,5.773c-1.87,1.662-4.651,2.834-7.861,2.829h-31.893c-4.217,0-7.632,3.415-7.632,7.634
	c0,4.215,3.415,7.632,7.632,7.632h31.893c6.886-0.007,13.245-2.473,17.995-6.681c4.742-4.18,7.932-10.331,7.921-17.187V176.58
	h18.514c7.738-0.016,15.06-4.029,18.551-11.186C331.056,162.955,331.655,160.304,331.653,157.681L331.653,157.681z M218.247,279.676
	h-24.136v48.836h24.136V279.676L218.247,279.676z M210.298,301.004h-8.237v-12.91h8.237V301.004L210.298,301.004z M210.298,320.089
	h-8.237v-12.91h8.237V320.089L210.298,320.089z"/>
</svg>
